<?xml version="1.0" encoding="utf-8"?>
<!-- Generator: Adobe Illustrator 16.0.0, SVG Export Plug-In . SVG Version: 6.00 Build 0)  -->
<!DOCTYPE svg PUBLIC "-//W3C//DTD SVG 1.1//EN" "http://www.w3.org/Graphics/SVG/1.1/DTD/svg11.dtd">
<svg version="1.1" id="レイヤー_1" xmlns="http://www.w3.org/2000/svg" xmlns:xlink="http://www.w3.org/1999/xlink" x="0px"
	 y="0px" width="1133.86px" height="566.93px" viewBox="0 0 1133.86 566.93" enable-background="new 0 0 1133.86 566.93"
	 xml:space="preserve">
<polygon fill="#FFFFFF" stroke="#000000" stroke-miterlimit="10" points="11.224,11.333 11.224,124.719 67.917,124.719 
	67.917,96.373 84.925,96.373 84.925,124.719 334.374,124.719 334.374,96.373 351.381,96.373 351.381,124.719 408.074,124.719 
	408.074,11.333 "/>
<rect x="195.476" y="90.704" fill="#FFFFFF" stroke="#000000" stroke-miterlimit="10" width="28.347" height="17.008"/>
<polygon fill="#FFFFFF" stroke="#000000" stroke-miterlimit="10" points="408.074,238.104 408.074,124.719 351.381,124.719 
	351.381,153.065 334.374,153.065 334.374,124.719 84.925,124.719 84.925,153.065 67.917,153.065 67.917,124.719 11.224,124.719 
	11.224,238.104 "/>
<rect x="195.476" y="141.727" fill="#FFFFFF" stroke="#000000" stroke-miterlimit="10" width="28.347" height="17.007"/>
<polygon fill="#FFFFFF" stroke="#000000" stroke-miterlimit="10" points="150.956,410.989 150.956,393.981 122.609,393.981 
	122.609,410.989 12.059,410.989 12.059,433.667 122.609,433.667 122.609,450.675 150.956,450.675 150.956,433.667 233.161,433.667 
	233.161,410.989 "/>
<path fill="#FFFFFF" stroke="#000000" stroke-miterlimit="10" d="M238.995,408.183l-85.039-85.039h-0.652v28.347h-17.008v-28.347
	h-22.677v28.347H96.61v-27.693l-84.386,84.386h56.692v-0.001c0-15.654,12.691-28.346,28.347-28.346c0.013,0,0.026,0.001,0.039,0.001
	h56.654v0.007c0.109-0.001,0.217-0.008,0.326-0.008c15.655,0,28.347,12.691,28.347,28.346v0.001H238.995z"/>
<path fill="#FFFFFF" stroke="#000000" stroke-miterlimit="10" d="M11.224,238.104l85.039,85.039h0.652v-28.347h17.008v28.347h22.678
	v-28.347h17.008v27.693l84.386-84.386h-56.692v0.001c0,15.654-12.691,28.346-28.347,28.346c-0.013,0-0.026-0.001-0.038-0.001H96.263
	v-0.007c-0.109,0.001-0.217,0.008-0.326,0.008c-15.655,0-28.347-12.691-28.347-28.346v-0.001H11.224z"/>
</svg>
